# xmcd
#
# Track frame offsets: 
#        150
#        16035
#        30415
#        47747
#        62997
#        77390
#        92305
#        109377
#        125330
#        144397
#
# Disc length: 2146 seconds
#
# Revision: 3
# Processed by: cddbd v1.5.1PL0 Copyright (c) Steve Scherf et al.
# Submitted via: ExactAudioCopy v0.90b3
#
DISCID=7108600a
DTITLE=Ray Charles - Just Between Us
DYEAR=1988
DGENRE=R&B
TTITLE0=Nothing Like A Hundred Miles
TTITLE1=I Wish I'd Never Loved You At All
TTITLE2=Too Hard To Love You
TTITLE3=Now I Don't Believe That Anymore
TTITLE4=Let's Call The Whole Thing Off
TTITLE5=Stranger In My Hometown
TTITLE6=Over The Top
TTITLE7=I'd Walk A Little More For You
TTITLE8=If That's What'cha Want
TTITLE9=Save The Bones For Henry Jones
EXTD=
EXTT0=
EXTT1=
EXTT2=
EXTT3=
EXTT4=
EXTT5=
EXTT6=
EXTT7=
EXTT8=
EXTT9=
PLAYORDER=
